<mxfile host="app.diagrams.net" modified="2023-04-25T00:30:15.846Z" agent="Mozilla/5.0 (Windows NT 10.0; Win64; x64) AppleWebKit/537.36 (KHTML, like Gecko) Chrome/112.0.0.0 Safari/537.36" etag="_ZfY46FI7Y5ucI8dzdfH" version="21.2.1" type="github">
  <diagram name="第 1 页" id="DEBEGBWJf3Bg5OhGPUIF">
    <mxGraphModel dx="2074" dy="1060" grid="1" gridSize="10" guides="1" tooltips="1" connect="1" arrows="1" fold="1" page="1" pageScale="1" pageWidth="827" pageHeight="1169" math="0" shadow="0">
      <root>
        <mxCell id="0" />
        <mxCell id="1" parent="0" />
        <mxCell id="w1KB9FC0D_1tg7qDYnNi-4" style="edgeStyle=orthogonalEdgeStyle;rounded=0;orthogonalLoop=1;jettySize=auto;html=1;entryX=0;entryY=0.5;entryDx=0;entryDy=0;" edge="1" parent="1" source="w1KB9FC0D_1tg7qDYnNi-1" target="w1KB9FC0D_1tg7qDYnNi-3">
          <mxGeometry relative="1" as="geometry" />
        </mxCell>
        <mxCell id="w1KB9FC0D_1tg7qDYnNi-5" value="初始化" style="edgeLabel;html=1;align=center;verticalAlign=middle;resizable=0;points=[];" vertex="1" connectable="0" parent="w1KB9FC0D_1tg7qDYnNi-4">
          <mxGeometry x="-0.1911" relative="1" as="geometry">
            <mxPoint as="offset" />
          </mxGeometry>
        </mxCell>
        <mxCell id="w1KB9FC0D_1tg7qDYnNi-1" value="分红账户" style="shape=cylinder3;whiteSpace=wrap;html=1;boundedLbl=1;backgroundOutline=1;size=15;" vertex="1" parent="1">
          <mxGeometry x="180" y="540" width="60" height="80" as="geometry" />
        </mxCell>
        <mxCell id="w1KB9FC0D_1tg7qDYnNi-6" style="edgeStyle=orthogonalEdgeStyle;rounded=0;orthogonalLoop=1;jettySize=auto;html=1;entryX=0.5;entryY=1;entryDx=0;entryDy=0;entryPerimeter=0;" edge="1" parent="1" source="w1KB9FC0D_1tg7qDYnNi-2" target="w1KB9FC0D_1tg7qDYnNi-1">
          <mxGeometry relative="1" as="geometry" />
        </mxCell>
        <mxCell id="w1KB9FC0D_1tg7qDYnNi-7" value="创建" style="edgeLabel;html=1;align=center;verticalAlign=middle;resizable=0;points=[];" vertex="1" connectable="0" parent="w1KB9FC0D_1tg7qDYnNi-6">
          <mxGeometry x="0.2296" y="1" relative="1" as="geometry">
            <mxPoint as="offset" />
          </mxGeometry>
        </mxCell>
        <mxCell id="w1KB9FC0D_1tg7qDYnNi-8" style="edgeStyle=orthogonalEdgeStyle;rounded=0;orthogonalLoop=1;jettySize=auto;html=1;entryX=0.5;entryY=1;entryDx=0;entryDy=0;" edge="1" parent="1" source="w1KB9FC0D_1tg7qDYnNi-2" target="w1KB9FC0D_1tg7qDYnNi-3">
          <mxGeometry relative="1" as="geometry" />
        </mxCell>
        <mxCell id="w1KB9FC0D_1tg7qDYnNi-9" value="发行" style="edgeLabel;html=1;align=center;verticalAlign=middle;resizable=0;points=[];" vertex="1" connectable="0" parent="w1KB9FC0D_1tg7qDYnNi-8">
          <mxGeometry x="0.4173" y="-1" relative="1" as="geometry">
            <mxPoint as="offset" />
          </mxGeometry>
        </mxCell>
        <mxCell id="w1KB9FC0D_1tg7qDYnNi-2" value="owner" style="shape=process;whiteSpace=wrap;html=1;backgroundOutline=1;" vertex="1" parent="1">
          <mxGeometry x="150" y="710" width="120" height="40" as="geometry" />
        </mxCell>
        <mxCell id="w1KB9FC0D_1tg7qDYnNi-14" style="edgeStyle=orthogonalEdgeStyle;rounded=0;orthogonalLoop=1;jettySize=auto;html=1;entryX=0.495;entryY=0.978;entryDx=0;entryDy=0;entryPerimeter=0;" edge="1" parent="1" source="w1KB9FC0D_1tg7qDYnNi-3" target="w1KB9FC0D_1tg7qDYnNi-12">
          <mxGeometry relative="1" as="geometry">
            <mxPoint x="430" y="470" as="targetPoint" />
          </mxGeometry>
        </mxCell>
        <mxCell id="w1KB9FC0D_1tg7qDYnNi-15" value="mint NFTs" style="edgeLabel;html=1;align=center;verticalAlign=middle;resizable=0;points=[];" vertex="1" connectable="0" parent="w1KB9FC0D_1tg7qDYnNi-14">
          <mxGeometry x="-0.2484" y="-1" relative="1" as="geometry">
            <mxPoint as="offset" />
          </mxGeometry>
        </mxCell>
        <mxCell id="w1KB9FC0D_1tg7qDYnNi-3" value="分红权系统" style="ellipse;whiteSpace=wrap;html=1;aspect=fixed;" vertex="1" parent="1">
          <mxGeometry x="390" y="540" width="80" height="80" as="geometry" />
        </mxCell>
        <mxCell id="w1KB9FC0D_1tg7qDYnNi-10" value="NFT" style="swimlane;fontStyle=0;childLayout=stackLayout;horizontal=1;startSize=30;horizontalStack=0;resizeParent=1;resizeParentMax=0;resizeLast=0;collapsible=1;marginBottom=0;whiteSpace=wrap;html=1;" vertex="1" parent="1">
          <mxGeometry x="360" y="360" width="140" height="90" as="geometry" />
        </mxCell>
        <mxCell id="w1KB9FC0D_1tg7qDYnNi-11" value="type" style="text;strokeColor=none;fillColor=none;align=left;verticalAlign=middle;spacingLeft=4;spacingRight=4;overflow=hidden;points=[[0,0.5],[1,0.5]];portConstraint=eastwest;rotatable=0;whiteSpace=wrap;html=1;" vertex="1" parent="w1KB9FC0D_1tg7qDYnNi-10">
          <mxGeometry y="30" width="140" height="30" as="geometry" />
        </mxCell>
        <mxCell id="w1KB9FC0D_1tg7qDYnNi-12" value="amount" style="text;strokeColor=none;fillColor=none;align=left;verticalAlign=middle;spacingLeft=4;spacingRight=4;overflow=hidden;points=[[0,0.5],[1,0.5]];portConstraint=eastwest;rotatable=0;whiteSpace=wrap;html=1;" vertex="1" parent="w1KB9FC0D_1tg7qDYnNi-10">
          <mxGeometry y="60" width="140" height="30" as="geometry" />
        </mxCell>
        <mxCell id="w1KB9FC0D_1tg7qDYnNi-18" style="edgeStyle=orthogonalEdgeStyle;rounded=0;orthogonalLoop=1;jettySize=auto;html=1;entryX=0.5;entryY=0;entryDx=0;entryDy=0;entryPerimeter=0;exitX=0.5;exitY=0;exitDx=0;exitDy=0;" edge="1" parent="1" source="w1KB9FC0D_1tg7qDYnNi-16" target="w1KB9FC0D_1tg7qDYnNi-1">
          <mxGeometry relative="1" as="geometry" />
        </mxCell>
        <mxCell id="w1KB9FC0D_1tg7qDYnNi-19" value="获取分红" style="edgeLabel;html=1;align=center;verticalAlign=middle;resizable=0;points=[];" vertex="1" connectable="0" parent="w1KB9FC0D_1tg7qDYnNi-18">
          <mxGeometry x="0.2254" y="-1" relative="1" as="geometry">
            <mxPoint as="offset" />
          </mxGeometry>
        </mxCell>
        <mxCell id="w1KB9FC0D_1tg7qDYnNi-20" style="edgeStyle=orthogonalEdgeStyle;rounded=0;orthogonalLoop=1;jettySize=auto;html=1;entryX=1;entryY=0.5;entryDx=0;entryDy=0;exitX=0.5;exitY=1;exitDx=0;exitDy=0;" edge="1" parent="1" source="w1KB9FC0D_1tg7qDYnNi-16" target="w1KB9FC0D_1tg7qDYnNi-3">
          <mxGeometry relative="1" as="geometry" />
        </mxCell>
        <mxCell id="w1KB9FC0D_1tg7qDYnNi-21" value="管理NFT" style="edgeLabel;html=1;align=center;verticalAlign=middle;resizable=0;points=[];" vertex="1" connectable="0" parent="w1KB9FC0D_1tg7qDYnNi-20">
          <mxGeometry x="0.1577" y="1" relative="1" as="geometry">
            <mxPoint as="offset" />
          </mxGeometry>
        </mxCell>
        <mxCell id="w1KB9FC0D_1tg7qDYnNi-16" value="分红权持有者" style="ellipse;whiteSpace=wrap;html=1;" vertex="1" parent="1">
          <mxGeometry x="590" y="365" width="120" height="80" as="geometry" />
        </mxCell>
        <mxCell id="w1KB9FC0D_1tg7qDYnNi-17" style="edgeStyle=orthogonalEdgeStyle;rounded=0;orthogonalLoop=1;jettySize=auto;html=1;" edge="1" parent="1" source="w1KB9FC0D_1tg7qDYnNi-11" target="w1KB9FC0D_1tg7qDYnNi-16">
          <mxGeometry relative="1" as="geometry" />
        </mxCell>
      </root>
    </mxGraphModel>
  </diagram>
</mxfile>
